<?xml version="1.0" standalone="no"?>
<!DOCTYPE svg PUBLIC "-//W3C//DTD SVG 20010904//EN"
 "http://www.w3.org/TR/2001/REC-SVG-20010904/DTD/svg10.dtd">
<svg version="1.0" xmlns="http://www.w3.org/2000/svg"
 width="400.000000pt" height="400.000000pt" viewBox="0 0 400.000000 400.000000"
 preserveAspectRatio="xMidYMid meet">
<metadata>
Created by potrace 1.11, written by Peter Selinger 2001-2013
</metadata>
<g transform="translate(0.000000,400.000000) scale(0.100000,-0.100000)"
fill="#000000" stroke="none">
<path d="M223 3303 c3 -384 7 -716 10 -738 3 -22 9 -69 12 -105 6 -61 17 -149
31 -250 3 -25 12 -76 19 -115 8 -38 17 -83 20 -100 3 -16 7 -43 10 -60 19 -99
96 -377 151 -542 149 -442 374 -884 648 -1268 l89 -125 787 0 786 0 82 114
c275 382 506 832 657 1281 70 207 137 460 169 640 3 17 8 39 10 50 2 11 6 41
10 66 4 25 9 57 11 70 7 40 25 180 31 244 3 33 8 80 11 105 2 25 7 357 10 738
l5 692 -1782 0 -1782 0 5 -697z"/>
</g>
</svg>
